<svg width="80" height="80" viewBox="0 0 80 80" fill="none" xmlns="http://www.w3.org/2000/svg">
<path d="M68 62H12C11.96 58.44 15.16 53.36 16.4 50.04C18.32 45.2 18.88 41.4 20.76 28.04C22.16 18.12 23.56 12.8 29.12 8.64002C32.52 6.24002 37.48 6.00002 39.24 6.00002H39.84C39.84 6.00002 46.48 5.64002 50.68 8.68002C56.32 12.8 57.68 18.16 59.08 28.08C61.04 41.4 61.6 45.24 63.48 50.08C64.8 53.36 68.04 58.44 68 62Z" stroke="black" stroke-width="4.4"/>
<path d="M49.56 64C49.56 69.48 45.4 73.72 39.64 73.72C33.92 73.72 29.68 69.48 29.68 64" stroke="black" stroke-width="4"/>
</svg>
