<svg width="80" height="80" viewBox="0 0 80 80" fill="none" xmlns="http://www.w3.org/2000/svg">
<path d="M40 60C42.2091 60 44 58.2091 44 56C44 53.7909 42.2091 52 40 52C37.7909 52 36 53.7909 36 56C36 58.2091 37.7909 60 40 60Z" fill="black"/>
<path d="M40 76C59.8823 76 76 59.8823 76 40C76 20.1177 59.8823 4 40 4C20.1177 4 4 20.1177 4 40C4 59.8823 20.1177 76 40 76Z" stroke="black" stroke-width="4.4"/>
<path d="M43.88 30.88C43.4 38.16 42.24 45.16 42.24 45.16C42.04 47.48 41.08 48 39.96 48C38.76 48 37.96 47.48 37.72 45.16C37.72 45.16 36.64 38.16 36.12 30.88C35.84 26.16 36.12 24 36.12 24C36.12 21.8 37.84 20.08 39.96 20C42.12 20.04 43.88 21.76 43.88 24C43.88 24 44.16 26.16 43.88 30.88Z" fill="black"/>
</svg>
